<svg width="40px" height="40px" fill="none" xmlns="http://www.w3.org/2000/svg" viewBox="0 0 41 40"><g clip-path="url(#clip0)" fill="#070707" stroke="#070707" stroke-width=".5"><path d="M34.3201 0H5.96036C2.72049 0 .0847168 2.62848.0847168 5.85938V34.1406C.0847168 37.3715 2.72049 40 5.96036 40H34.3201c3.2399 0 5.8757-2.6285 5.8757-5.8594V5.85938C40.1958 2.62848 37.56 0 34.3201 0zm3.5254 34.1406c0 1.9385-1.5815 3.5156-3.5254 3.5156H5.96036c-1.94386 0-3.52539-1.5771-3.52539-3.5156V5.85938c0-1.93848 1.58153-3.51563 3.52539-3.51563H34.3201c1.9439 0 3.5254 1.57715 3.5254 3.51563V34.1406z"/><path d="M18.9651 16.4844c0-2.5849-2.1085-4.6875-4.7005-4.6875H7.21387v16.4062h7.05073c2.592 0 4.7005-2.1026 4.7005-4.6875 0-1.3989-.6184-2.6559-1.5965-3.5156.9781-.8597 1.5965-2.1167 1.5965-3.5156zm-2.3502 7.0312c0 1.2924-1.0543 2.3438-2.3503 2.3438H9.56412v-4.6875h4.70048c1.296 0 2.3503 1.0513 2.3503 2.3437zm-7.05078-4.6875v-4.6875h4.70048c1.296 0 2.3503 1.0514 2.3503 2.3438s-1.0543 2.3437-2.3503 2.3437H9.56412zM27.1911 16.4844c-3.2399 0-5.8757 2.6285-5.8757 5.8594 0 3.2308 2.6358 5.8593 5.8757 5.8593 2.091 0 4.041-1.1221 5.0888-2.9287l-2.0344-1.1738c-.6292 1.0849-1.7997 1.7588-3.0544 1.7588-1.5323 0-2.839-.9796-3.3241-2.3438h9.1997v-1.1718c0-3.2309-2.6358-5.8594-5.8756-5.8594zm-3.3241 4.6875c.4851-1.3642 1.7918-2.3438 3.3241-2.3438 1.5322 0 2.8389.9796 3.324 2.3438H23.867zM22.4905 11.7969h9.401v2.3437h-9.401v-2.3437z"/></g><defs><clipPath id="clip0"><path fill="#fff" transform="translate(.0847168)" d="M0 0h40.111v40H0z"/></clipPath></defs></svg>
