<svg width="40px" height="40px" fill="none" xmlns="http://www.w3.org/2000/svg" viewBox="0 0 40 41"><path d="M30.6636 7.90189l.3057-.38424-.3786-.31264c-2.9154-2.40714-6.6181-3.84503-10.6689-3.84503-1.4192 0-2.7951.19881-4.0979.52452l-.7271.18179.4471.60156c1.3906 1.87087 3.3883 4.69643 5.7807 9.12175l.2066.3822.4073-.1513c4.5273-1.681 7.2401-4.25246 8.7251-6.11861zM13.3633 5.14412l-.245-.32279-.3666.17289C8.2556 7.11505 4.84923 11.1659 3.50458 16.1128l-.16608.611.63284.0199c2.4759.078 8.39406-.0387 14.95176-1.7955l.6185-.1657-.3107-.5599c-2.5434-4.58366-4.6824-7.5172-5.8676-9.07848zM32.8171 9.4031l-.3877-.46064-.3816.46573c-1.656 2.02121-4.5313 4.64651-9.0836 6.42791l-.5063.1981.2397.4879c.9815 1.9982 1.9337 4.1275 2.8013 6.4269l.1429.3789.4003-.0611c3.2933-.5029 6.3375-.5029 8.6369-.3228.5591.0464.9198.0985 1.3397.1591.0885.0128.1795.026.2756.0395l.5121.0723.055-.5142c.0674-.6306.1062-1.2639.1062-1.9185 0-4.3535-1.5774-8.322-4.1505-11.3791zm-12.147 7.6273l-.1851-.3712-.399.1134c-7.7133 2.1913-14.50797 2.1244-16.62402 2.039l-.48183-.0195-.03688.4808-.00258.0337c-.03656.4765-.07409.9655-.07409 1.4852 0 5.2338 2.26437 9.9058 5.83531 13.1027l.3728.3338.33348-.3731c.89511-1.0013 2.09571-2.2766 3.55531-3.6078l.002-.0018c2.7463-2.5317 6.2797-5.2105 10.1287-6.3793l.5169-.157-.1964-.5032c-.8615-2.2077-1.7891-4.2599-2.7446-6.1757zm9.4895 7.8962l-.0054.0002c-1.0111.0488-2.0874.1463-3.1819.2923l-.5948.0793.1853.5708c.9238 2.8438 1.6879 5.8563 2.1815 8.9901l.1243.7889.6553-.4563c3.1861-2.2186 5.5961-5.5156 6.7188-9.386l.1653-.5696-.5894-.0665c-1.46-.1649-3.3113-.3311-5.659-.2432zm-5.656 1.1853l-.1536-.4534-.4596.1337c-3.3814.9839-6.9183 3.5351-9.5987 5.9954-1.2952 1.1786-2.3412 2.2974-3.1807 3.2139l-.4127.4505.5233.3154c2.5455 1.5344 5.5014 2.4371 8.6908 2.4371 2.3936 0 4.6514-.5057 6.7133-1.3967l.348-.1505-.0509-.3757c-.4843-3.5738-1.3385-6.9799-2.4192-10.1697zM.867676 20.7822c0-10.7532 8.567244-19.499 19.054124-19.499 10.4869 0 19.0541 8.7458 19.0541 19.499s-8.5672 19.499-19.0541 19.499c-10.48688 0-19.054124-8.7458-19.054124-19.499z" fill="#070707" stroke="#070707"/></svg>
