<svg width="40px" height="40px" fill="none" xmlns="http://www.w3.org/2000/svg" viewBox="0 0 40 41"><path d="M12.1663 1.29281h.5V1.2832H28.571c5.9646 0 10.8471 4.98469 10.8471 11.112v16.774c0 6.1276-4.8828 11.112-10.8377 11.112H12.1663c-5.96595 0-10.85649-4.9764-10.85649-11.0928V12.4048c0-6.12675 4.89134-11.11199 10.85649-11.11199zM3.31814 12.4135v16.7846c0 4.9861 3.92756 9.0167 8.84816 9.0167h16.4141c4.9032 0 8.8293-4.0321 8.8293-9.036v-16.774c0-5.0042-3.9264-9.03595-8.8387-9.03595H12.1663c-4.91281 0-8.83823 4.03208-8.84816 9.04465zM31.4025 8.4829c0-.58993.454-1.03801 1.0042-1.03801.5501 0 1.0041.44808 1.0041 1.03801 0 .58993-.454 1.03802-1.0041 1.03802-.5502 0-1.0042-.44809-1.0042-1.03802zM10.3442 20.787c0-5.6557 4.5247-10.2661 10.0291-10.2661 5.5045 0 10.0292 4.6104 10.0292 10.2661 0 5.6558-4.5247 10.2662-10.0292 10.2662-5.5044 0-10.0291-4.6104-10.0291-10.2662zm18.05 0c0-4.5336-3.5602-8.19-8.0209-8.19-4.4606 0-8.0208 3.6564-8.0208 8.19s3.5602 8.1901 8.0208 8.1901c4.4607 0 8.0209-3.6565 8.0209-8.1901z" fill="#070707" stroke="#070707"/></svg>
