<svg width="40px" height="40px" fill="none" xmlns="http://www.w3.org/2000/svg" viewBox="0 0 41 41"><path d="M34.5749.642578H6.17579C2.93143.642578.291992 3.27494.291992 6.51061V34.8336c0 3.2357 2.639438 5.8681 5.883798 5.8681H34.5749c3.2444 0 5.8838-2.6324 5.8838-5.8681V6.51061c0-3.23567-2.6394-5.868032-5.8838-5.868032zM38.1052 34.8336c0 1.9414-1.5837 3.5208-3.5303 3.5208H6.17579c-1.94656 0-3.53028-1.5794-3.53028-3.5208V6.51061c0-1.94134 1.58372-3.52082 3.53028-3.52082H34.5749c1.9466 0 3.5303 1.57948 3.5303 3.52082V34.8336z" fill="#070707" stroke="#070707" stroke-width=".5"/><mask id="a" fill="#fff"><path d="M31.4199 29.6787h-4.3115v-.1986c0-2.3345-.0003-4.669.0003-7.0032 0-.4969-.0369-.9876-.1617-1.4722-.5154-1.9986-2.7412-1.8818-3.6267-.9346-.445.476-.7358 1.014-.748 1.6788-.0028.1582-.012.3167-.012.4748-.001 2.4161-.0006 4.8324-.0006 7.2484v.2054h-4.3038V16.3124h4.3016v1.7929c.0114.0049.0227.0101.0344.015.0308-.0417.0621-.0828.0925-.1248.4312-.5989.9267-1.1298 1.585-1.4888.7352-.4012 1.5294-.5358 2.3558-.5119.895.0261 1.7442.2275 2.5095.709.9811.6174 1.5789 1.5207 1.929 2.6043.2729.8444.3623 1.7156.3632 2.5978.0022 2.5386.001 5.0775.0007 7.6162 0 .0496-.0047.0993-.0077.1566z"/></mask><path d="M31.4199 29.6787h-4.3115v-.1986c0-2.3345-.0003-4.669.0003-7.0032 0-.4969-.0369-.9876-.1617-1.4722-.5154-1.9986-2.7412-1.8818-3.6267-.9346-.445.476-.7358 1.014-.748 1.6788-.0028.1582-.012.3167-.012.4748-.001 2.4161-.0006 4.8324-.0006 7.2484v.2054h-4.3038V16.3124h4.3016v1.7929c.0114.0049.0227.0101.0344.015.0308-.0417.0621-.0828.0925-.1248.4312-.5989.9267-1.1298 1.585-1.4888.7352-.4012 1.5294-.5358 2.3558-.5119.895.0261 1.7442.2275 2.5095.709.9811.6174 1.5789 1.5207 1.929 2.6043.2729.8444.3623 1.7156.3632 2.5978.0022 2.5386.001 5.0775.0007 7.6162 0 .0496-.0047.0993-.0077.1566z" fill="#070707"/><path d="M31.4199 29.6787v.0306h.029l.0015-.0289-.0305-.0017zm-4.3115 0h-.0306v.0306h.0306v-.0306zm.0003-7.2018h.0306-.0306zm-.1617-1.4722l.0297-.0076v-.0001l-.0297.0077zm-3.6267-.9346l.0224.0209-.0224-.0209zm-.748 1.6788l-.0306-.0005.0306.0005zm-.012.4748h.0306-.0306zm-.0006 7.4538v.0306h.0306v-.0306h-.0306zm-4.3038 0h-.0306v.0306h.0306v-.0306zm0-13.3651v-.0306h-.0306v.0306h.0306zm4.3016 0h.0306v-.0306h-.0306v.0306zm0 1.7929h-.0306v.0201l.0185.008.0121-.0281zm.0344.015l-.0118.0282.0222.0093.0143-.0193-.0247-.0182zm.0925-.1248l.0248.018.0001-.0001-.0249-.0179zm1.585-1.4888l.0147.0269-.0147-.0269zm2.3558-.5119l.0009-.0305-.0009.0305zm2.5095.709l.0163-.0259-.0163.0259zm1.929 2.6043l-.0292.0094.0292-.0094zm.3632 2.5978l.0307-.0001-.0307.0001zm.0007 7.6162h-.0306.0306zm-.0077.126H27.1084v.0612H31.4199v-.0612zm-4.2809.0306v-.0004-.0004-.0004-.0004-.0004-.0004-.0004-.0004-.0004-.0004-.0004-.0005-.0004-.0004-.0004-.0004-.0004-.0004-.0004-.0004-.0004-.0004-.0004-.0004-.0004-.0004-.0004-.0004-.0004-.0004-.0004-.0004-.0004-.0004-.0004-.0004-.0004-.0004-.0004-.0004-.0004-.0004-.0004-.0005-.0004-.0004-.0004-.0004-.0004-.0004-.0004-.0004-.0004-.0004-.0004-.0004-.0004-.0004-.0004-.0004-.0004-.0004-.0004-.0004-.0004-.0004-.0004-.0004-.0004-.0004-.0004-.0004-.0004-.0004-.0003-.0004-.0004-.0004-.0004-.0004-.0004-.0004-.0004-.0004-.0004-.0004-.0004-.0004-.0004-.0004-.0004-.0004-.0004-.0004-.0004-.0004-.0004-.0004-.0004-.0004-.0004-.0004-.0004-.0004-.0004-.0004-.0004-.0004-.0004-.0003-.0004-.0004-.0004-.0004-.0004-.0004-.0004-.0004-.0004-.0004-.0004-.0004-.0004-.0004-.0004-.0004-.0004-.0004-.0003-.0004-.0004-.0004-.0004-.0004-.0004-.0004-.0004-.0004-.0004-.0004-.0004-.0004-.0004-.0004-.0003-.0004-.0004-.0004-.0004-.0004-.0004-.0004-.0004-.0004-.0004-.0004-.0004-.0003-.0004-.0004-.0004-.0004-.0004-.0004-.0004-.0004-.0004-.0004-.0003-.0004-.0004-.0004-.0004-.0004-.0004-.0004-.0004-.0004-.0004-.0003-.0004-.0004-.0004-.0004-.0004-.0004-.0004-.0004-.0004-.0003-.0004-.0004-.0004-.0004-.0004-.0004-.0004-.0004-.0004-.0003-.0004-.0004-.0004-.0004-.0004-.0004-.0004-.0003-.0004-.0004-.0004-.0004-.0004-.0004-.0004-.0004-.0003-.0004-.0004-.0004-.0004-.0004-.0004-.0004-.0003-.0004-.0004-.0004-.0004-.0004-.0004-.0004-.0003-.0004-.0004-.0004-.0004-.0004-.0004-.0003-.0004-.0004-.0004-.0004-.0004-.0004-.0004-.0003-.0004-.0004-.0004-.0004-.0004-.0004-.0003-.0004-.0004-.0004-.0004-.0004-.0004-.0003-.0004-.0004-.0004-.0004-.0004-.0004-.0003-.0004-.0004-.0004-.0004-.0004-.0003-.0004-.0004-.0004-.0004-.0004-.0004-.0003-.0004-.0004-.0004-.0004-.0004-.0003-.0004-.0004-.0004-.0004-.0004-.0003-.0004-.0004-.0004-.0004-.0004-.0003-.0004-.0004-.0004-.0004-.0004-.0004-.0003-.0004-.0004-.0004-.0004-.0003-.0004-.0004-.0004-.0004-.0004-.0003-.0004-.0004-.0004-.0004-.0004-.0003-.0004-.0004-.0004-.0004-.0004-.0003-.0004-.0004-.0004-.0004-.0004-.0003-.0004-.0004-.0004-.0004-.0003-.0004-.0004-.0004-.0004-.0004-.0003-.0004-.0004-.0004-.0004-.0003-.0004-.0004-.0004-.0004-.0003-.0004-.0004-.0004-.0004-.0004-.0003-.0004-.0004-.0004-.0004-.0003-.0004-.0004-.0004-.0004-.0003-.0004-.0004-.0004-.0004-.0004-.0003-.0004-.0004-.0004-.0004-.0003-.0004-.0004-.0004-.0004-.0003-.0004-.0004-.0004-.0004-.0003-.0004-.0004-.0004-.0004-.0003-.0004-.0004-.0004-.0004-.0003-.0004-.0004-.0004-.0004-.0003-.0004-.0004-.0004-.0004-.0003-.0004-.0004-.0004-.0004-.0003-.0004-.0004-.0004-.0004-.0003-.0004-.0004-.0004-.0004-.0003-.0004-.0004-.0004-.0004-.0003-.0004-.0004-.0004-.0004-.0003-.0004-.0004-.0004-.0004-.0003-.0004-.0004-.0004-.0004-.0003-.0004-.0004-.0004-.0004-.0003-.0004-.0004-.0004-.0003-.0004-.0004-.0004-.0004-.0003-.0004-.0004-.0004-.0004-.0003-.0004-.0004-.0004-.0004-.0003-.0004-.0004-.0004-.0004-.0003-.0004-.0004-.0004-.0003-.0004-.0004-.0004-.0004-.0003-.0004-.0004-.0004-.0004-.0003-.0004-.0004-.0004-.0004-.0003-.0004-.0004-.0004-.0003-.0004-.0004-.0004-.0004-.0003-.0004-.0004-.0004-.0004-.0003-.0004h-.0612V29.6787h.0612zm0-.1986c0-2.3345-.0003-4.669.0003-7.0032h-.0612c-.0006 2.3342-.0003 4.6687-.0003 7.0032h.0612zm.0003-7.0032c0-.4983-.037-.9918-.1626-1.4798l-.0593.0152c.1239.4812.1607.9692.1607 1.4646h.0612zm-.1626-1.4799c-.261-1.0119-.9569-1.4907-1.7-1.5946-.7405-.1034-1.5285.1653-1.9787.6468l.0447.0418c.4353-.4656 1.2029-.7289 1.9255-.6279.7201.1006 1.3948.5627 1.6492 1.5492l.0593-.0153zm-3.6787-.9478c-.4485.4797-.7439 1.0246-.7563 1.6992l.0612.0011c.0121-.6551.2982-1.1862.7398-1.6585l-.0447-.0418zm-.7563 1.6992c-.0028.1559-.012.3174-.012.4753h.0612c0-.1584.0091-.3138.012-.4742l-.0612-.0011zm-.012.4753c-.001 2.4161-.0007 4.8324-.0007 7.2484h.0613c0-2.416-.0003-4.8323.0006-7.2484h-.0612zm-.0007 7.2484V29.6775h.0613v-.0005-.0004-.0004-.0005-.0004-.0004-.0005-.0004-.0004-.0005-.0004-.0005-.0004-.0004-.0005-.0004-.0004-.0005-.0004-.0004-.0005-.0004-.0004-.0005-.0004-.0004-.0005-.0004-.0004-.0005-.0004-.0004-.0005-.0004-.0004-.0005-.0004-.0004-.0004-.0005-.0004-.0004-.0005-.0004-.0004-.0005-.0004-.0004-.0004-.0005-.0004-.0004-.0004-.0005-.0004-.0004-.0005-.0004-.0004-.0004-.0005-.0004-.0004-.0004-.0005-.0004-.0004-.0004-.0005-.0004-.0004-.0004-.0005-.0004-.0004-.0004-.0004-.0005-.0004-.0004-.0004-.0005-.0004-.0004-.0004-.0004-.0005-.0004-.0004-.0004-.0004-.0005-.0004-.0004-.0004-.0004-.0005-.0004-.0004-.0004-.0004-.0005-.0004-.0004-.0004-.0004-.0004-.0005-.0004-.0004-.0004-.0004-.0004-.0005-.0004-.0004-.0004-.0004-.0004-.0005-.0004-.0004-.0004-.0004-.0004-.0004-.0005-.0004-.0004-.0004-.0004-.0004-.0004-.0005-.0004-.0004-.0004-.0004-.0004-.0004-.0004-.0005-.0004-.0004-.0004-.0004-.0004-.0004-.0004-.0004-.0005-.0004-.0004-.0004-.0004-.0004-.0004-.0004-.0004-.0004-.0004-.0005-.0004-.0004-.0004-.0004-.0004-.0004-.0004-.0004-.0004-.0004-.0004-.0004-.0005-.0004-.0004-.0004-.0004-.0004-.0004-.0004-.0004-.0004-.0004-.0004-.0004-.0004-.0004-.0004-.0004-.0004-.0005-.0004-.0004-.0004-.0004-.0004-.0004-.0004-.0004-.0004-.0004-.0004-.0004-.0004-.0004-.0004-.0004-.0004-.0004-.0004-.0004-.0004-.0004-.0004-.0004-.0004-.0004-.0004-.0004-.0004-.0004-.0004-.0004-.0004-.0004-.0004-.0004-.0004-.0004-.0004-.0004-.0004-.0004-.0004-.0004-.0004-.0004-.0004-.0004-.0004-.0004-.0004-.0004-.0004-.0004-.0004-.0004-.0004-.0004-.0004-.0004-.0004-.0004-.0004-.0004-.0004-.0004-.0003-.0004-.0004-.0004-.0004-.0004-.0004-.0004-.0004-.0004-.0004-.0004-.0004-.0004-.0004-.0004-.0004-.0004-.0004-.0004-.0003-.0004-.0004-.0004-.0004-.0004-.0004-.0004-.0004-.0004-.0004-.0004-.0004-.0004-.0004-.0003-.0004-.0004-.0004-.0004-.0004-.0004-.0004-.0004-.0004-.0004-.0004-.0004-.0003-.0004-.0004-.0004-.0004-.0004-.0004-.0004-.0004-.0004-.0004-.0003-.0004-.0004-.0004-.0004-.0004-.0004-.0004-.0004-.0004-.0003-.0004-.0004-.0004-.0004-.0004-.0004-.0004-.0004-.0003-.0004-.0004-.0004-.0004-.0004-.0004-.0004-.0004-.0003-.0004-.0004-.0004-.0004-.0004-.0004-.0004-.0004-.0003-.0004-.0004-.0004-.0004-.0004-.0004-.0004-.0003-.0004-.0004-.0004-.0004-.0004-.0004-.0003-.0004-.0004-.0004-.0004-.0004-.0004-.0004-.0003-.0004-.0004-.0004-.0004-.0004-.0004-.0003-.0004-.0004-.0004-.0004-.0004-.0004-.0003-.0004-.0004-.0004-.0004-.0004-.0004-.0003-.0004-.0004-.0004-.0004-.0004-.0004-.0003-.0004-.0004-.0004-.0004-.0004-.0003-.0004-.0004-.0004-.0004-.0004-.0004-.0003-.0004-.0004-.0004-.0004-.0004-.0003-.0004-.0004-.0004-.0004-.0004-.0003-.0004-.0004-.0004-.0004-.0004-.0003-.0004-.0004-.0004-.0004-.0004-.0004-.0003-.0004-.0004-.0004-.0004-.0004-.0003-.0004-.0004-.0004-.0004-.0004-.0003-.0004-.0004-.0004-.0004-.0003-.0004-.0004-.0004-.0004-.0004-.0003-.0004-.0004-.0004-.0004-.0004-.0003-.0004-.0004-.0004-.0004-.0004-.0003-.0004-.0004-.0004-.0004-.0004-.0003-.0004-.0004-.0004-.0004-.0004-.0003-.0004-.0004-.0004-.0004-.0003-.0004-.0004-.0004-.0004-.0004-.0003-.0004-.0004-.0004-.0004-.0004-.0003-.0004-.0004-.0004h-.0613zm.0307.1748H18.2559v.0612H22.5597v-.0612zm-4.2732.0306v-.0261-.0261-.0261-.0261-.0261-.0261-.0261-.0262-.0261-.0261-.0261-.0261-.0261-.0261-.0261-.0261-.0261-.0261-.0261-.0261-.0261-.0261-.0261-.0261-.0261-.0261-.0261-.0261-.0261-.0261-.0261-.0261-.0261-.0261-.0261-.0261-.0261-.0262-.0261-.0261-.0261-.0261-.0261-.0261-.0261-.0261-.0261-.0261-.0261-.0261-.0261-.0261-.0261-.0261-.0261-.0261-.0261-.0261-.0261-.0261-.0261-.0261-.0261-.0261-.0261-.0261-.0261-.0261-.0261-.0261-.0261-.0261-.0261-.0261-.0261-.0261-.0261-.0261-.0261-.0261-.0261-.0261-.0261-.0261-.0261-.0261-.0261-.0261-.0261-.026-.0261-.0261-.0261-.0261-.0261-.0261-.0261-.0261-.0261-.0261-.0261-.0261-.0261-.0261-.0261-.0261-.0261-.0261-.0261-.0261-.0261-.0261-.0261-.0261-.0261-.0261-.0261-.0261-.0261-.0261-.0261-.0261-.0261-.0261-.0261-.0261-.0261-.0261-.026-.0261-.0261-.0261-.0261-.0261-.0261-.0261-.0261-.0261-.0261-.0261-.0261-.0261-.0261-.0261-.0261-.0261-.0261-.0261-.0261-.0261-.0261-.0261-.0261-.0261-.0261-.0261-.026-.0261-.0261-.0261-.0261-.0261-.0261-.0261-.0261-.0261-.0261-.0261-.0261-.0261-.0261-.0261-.0261-.0261-.0261-.0261-.0261-.0261-.0261-.0261-.026-.0261-.0261-.0261-.0261-.0261-.0261-.0261-.0261-.0261-.0261-.0261-.0261-.0261-.0261-.0261-.0261-.0261-.0261-.0261-.0261-.0261-.0261-.0261-.026-.0261-.0261-.0261-.0261-.0261-.0261-.0261-.0261-.0261-.0261-.0261-.0261-.0261-.0261-.0261-.0261-.0261-.0261-.0261-.0261-.0261-.0261-.0261-.0261-.0261-.0261-.026-.0261-.0261-.0261-.0261-.0261-.0261-.0261-.0261-.0261-.0261-.0261-.0261-.0261-.0261-.0261-.0261-.0261-.0261-.0261-.0261-.0261-.0261-.0261-.0261-.0261-.0261-.0261-.0261-.0261-.0261-.0261-.0261-.0261-.0261-.026-.0261-.0261-.0261-.0261-.0261-.0261-.0261-.0261-.0261-.0261-.0261-.0261-.0261-.0261-.0261-.0261-.0261-.0261-.0261-.0261-.0261-.0261-.0261-.0261-.0261-.0261-.0261-.0261-.0261-.0261-.0261-.0261-.0261-.0261-.0261-.0261-.0261-.0261-.0261-.0261-.0261-.0261-.0261-.0261-.0261-.0261-.0261-.0261-.0261-.0261-.0261-.0261-.0261-.0261-.0261-.0261-.0261-.0261-.0261-.0261-.0261-.0261-.0261-.0261-.0261-.0261-.0261-.0261-.0261-.0262-.0261-.0261-.0261-.0261-.0261-.0261-.0261-.0261-.0261-.0261-.0261-.0261-.0261-.0261-.0261-.0261-.0261-.0261-.0261-.0261-.0261-.0261-.0261-.0261-.0261-.0262-.0261-.0261-.0261-.0261-.0261-.0261-.0261-.0261-.0261-.0261-.0261-.0261-.0261-.0261-.0261-.0261-.0262-.0261-.0261-.0261-.0261-.0261-.0261-.0261-.0261-.0261-.0261-.0261-.0261-.0262-.0261-.0261-.0261-.0261-.0261-.0261-.0261-.0261-.0261-.0261-.0262-.0261-.0261-.0261-.0261-.0261-.0261-.0261-.0261-.0262-.0261-.0261-.0261-.0261-.0261-.0261-.0261-.0261-.0262-.0261-.0261-.0261-.0261-.0261-.0261-.0261-.0262-.0261-.0261-.0261-.0261-.0261-.0261-.0262-.0261-.0261-.0261-.0261-.0261-.0261-.0262-.0261-.0261-.0261-.0261-.0261-.0262-.0261-.0261-.0261-.0261-.0261-.0262-.0261-.0261-.0261-.0261-.0261-.0262-.0261-.0261-.0261-.0261-.0262-.0261-.0261-.0261-.0261-.0262-.0261-.0261-.0261-.0261-.0262-.0261-.0261-.0261-.0261-.0262-.0261-.0261-.0261-.0262-.0261-.0261-.0261-.0261-.0262-.0261-.0261-.0261-.0262-.0261-.0261-.0261-.0262-.0261-.0261-.0261-.0262-.0261-.0261-.0261-.0262-.0261-.0261-.0261-.0262-.0261h-.0612V29.6775h.0612zm-.0306-13.3345H22.5575v-.0612H18.2559v.0612zm4.271-.0306V18.1053h.0612v-.0035-.0035-.0035-.0035-.0035-.0034-.0035-.0035-.0035-.0035-.0035-.0034-.0035-.0035-.0035-.0035-.0035-.0034-.0035-.0035-.0035-.0035-.0035-.0035-.0034-.0035-.0035-.0035-.0035-.0035-.0034-.0035-.0035-.0035-.0035-.0035-.0035-.0034-.0035-.0035-.0035-.0035-.0035-.0034-.0035-.0035-.0035-.0035-.0035-.0035-.0034-.0035-.0035-.0035-.0035-.0035-.0035-.0034-.0035-.0035-.0035-.0035-.0035-.0034-.0035-.0035-.0035-.0035-.0035-.0035-.0034-.0035-.0035-.0035-.0035-.0035-.0035-.0034-.0035-.0035-.0035-.0035-.0035-.0035-.0034-.0035-.0035-.0035-.0035-.0035-.0035-.0034-.0035-.0035-.0035-.0035-.0035-.0035-.0034-.0035-.0035-.0035-.0035-.0035-.0035-.0034-.0035-.0035-.0035-.0035-.0035-.0035-.0035-.0034-.0035-.0035-.0035-.0035-.0035-.0035-.0035-.0034-.0035-.0035-.0035-.0035-.0035-.0035-.0035-.0034-.0035-.0035-.0035-.0035-.0035-.0035-.0035-.0034-.0035-.0035-.0035-.0035-.0035-.0035-.0035-.0034-.0035-.0035-.0035-.0035-.0035-.0035-.0035-.0035-.0034-.0035-.0035-.0035-.0035-.0035-.0035-.0035-.0035-.0035-.0034-.0035-.0035-.0035-.0035-.0035-.0035-.0035-.0035-.0035-.0034-.0035-.0035-.0035-.0035-.0035-.0035-.0035-.0035-.0035-.0035-.0034-.0035-.0035-.0035-.0035-.0035-.0035-.0035-.0035-.0035-.0035-.0034-.0035-.0035-.0035-.0035-.0035-.0035-.0035-.0035-.0035-.0035-.0035-.0035-.0035-.0034-.0035-.0035-.0035-.0035-.0035-.0035-.0035-.0035-.0035-.0035-.0035-.0035-.0035-.0035-.0035-.0034-.0035-.0035-.0035-.0035-.0035-.0035-.0035-.0035-.0035-.0035-.0035-.0035-.0035-.0035-.0035-.0035-.0035-.0035-.0035-.0035-.0035-.0034-.0035-.0035-.0035-.0035-.0035-.0035-.0035-.0035-.0035-.0035-.0035-.0035-.0035-.0035-.0035-.0035-.0035-.0035-.0035-.0035-.0035-.0035-.0035-.0035-.0035-.0035-.0035-.0035-.0035-.0035-.0035-.0035-.0035-.0035-.0035-.0035-.0035-.0035-.0035-.0035-.0035-.0035-.0035-.0035-.0035-.0035-.0035-.0035-.0035-.0035-.0035-.0035-.0035-.0035-.0035-.0035-.0035-.0035-.0035-.0035-.0035-.0035-.0036-.0035-.0035-.0035-.0035-.0035-.0035-.0035-.0035-.0035-.0035-.0035-.0035-.0035-.0035-.0035-.0035-.0035-.0035-.0035-.0035-.0036-.0035-.0035-.0035-.0035-.0035-.0035-.0035-.0035-.0035-.0035-.0035-.0035-.0035-.0036-.0035-.0035-.0035-.0035-.0035-.0035-.0035-.0035-.0035-.0035-.0036-.0035-.0035-.0035-.0035-.0035-.0035-.0035-.0035-.0036-.0035-.0035-.0035-.0035-.0035-.0035-.0035-.0035-.0036-.0035-.0035-.0035-.0035-.0035-.0035-.0035-.0036-.0035-.0035-.0035-.0035-.0035-.0035-.0036-.0035-.0035-.0035-.0035-.0035-.0036-.0035-.0035-.0035-.0035-.0035-.0035-.0036-.0035-.0035-.0035-.0035-.0035-.0036-.0035-.0035-.0035-.0035-.0036-.0035-.0035-.0035-.0035-.0036-.0035-.0035-.0035-.0035-.0036-.0035-.0035-.0035-.0035-.0036-.0035-.0035-.0035-.0035-.0036-.0035-.0035-.0035-.0036-.0035-.0035-.0035-.0035-.0036-.0035-.0035-.0035-.0036-.0035-.0035-.0035-.0036-.0035-.0035-.0035-.0036-.0035-.0035-.0035-.0036-.0035-.0035-.0035-.0036-.0035-.0035-.0036-.0035-.0035-.0035-.0036-.0035-.0035-.0036-.0035-.0035-.0035-.0036-.0035-.0035-.0036-.0035-.0035-.0036-.0035-.0035-.0035-.0036-.0035-.0035-.0036-.0035-.0035-.0036-.0035-.0035-.0036-.0035-.0035-.0036-.0035-.0035-.0036-.0035-.0035-.0036-.0035-.0035-.0036-.0035-.0036-.0035h-.0612zm.0185 1.821c.0102.0044.0231.0103.0347.0151l.0237-.0564c-.0118-.005-.0217-.0095-.0342-.0149l-.0242.0562zm.0712.0051c.0302-.041.0622-.083.0926-.125l-.0496-.0359c-.0304.042-.0611.0821-.0923.1245l.0493.0364zm.0927-.1251c.4298-.597.922-1.1239 1.5748-1.4798l-.0293-.0537c-.664.362-1.1626.8969-1.5952 1.4978l.0497.0357zm1.5748-1.4798c.7293-.398 1.5178-.532 2.3403-.5082l.0017-.0611c-.8304-.0241-1.6303.1111-2.3713.5156l.0293.0537zm2.3403-.5082c.8909.026 1.7344.2264 2.494.7043l.0326-.0518c-.7709-.4851-1.6258-.6875-2.5249-.7136l-.0017.0611zm2.494.7043c.9737.6128 1.5678 1.5095 1.9161 2.5878l.0583-.0188c-.3518-1.0888-.9533-1.9988-1.9418-2.6208l-.0326.0518zm1.9161 2.5878c.2717.8405.3609 1.7082.3618 2.5884l.0613-.0001c-.001-.8841-.0906-1.7587-.3648-2.6071l-.0583.0188zm.3618 2.5884c.0022 2.5386.001 5.0775.0007 7.6162h.0612c.0003-2.5386.0015-5.0776-.0006-7.6163l-.0613.0001zm.0007 7.6162c0 .0486-.0045.096-.0077.155l.0611.0033c.003-.0558.0078-.1076.0078-.1583h-.0612z" fill="#070707" mask="url(#a)"/><path d="M15.6109 29.6707H11.3608V16.3239h4.2501V29.6707zM13.6692 9.67156c.6701-.00092 1.2414.23685 1.6458.64324.4043.4064.6426.9823.6449 1.6591.0021.6694-.2374 1.2403-.6475 1.6438-.4101.4035-.9916.6406-1.6749.6409-1.3325.0009-2.2819-.9509-2.2843-2.29-.0024-1.3398.9605-2.29522 2.316-2.29704z" fill="#070707" stroke="#070707" stroke-width=".0306072"/></svg>
